<svg xmlns="http://www.w3.org/2000/svg" xml:space="preserve"
     style="fill-rule:evenodd;clip-rule:evenodd;stroke-linecap:round;stroke-linejoin:round" viewBox="0 0 16 16"><path fill="none" stroke="#6C707E" stroke-width="1.066672" d="M6.667 3v9c0 .72-.294 1.38-.76 1.86l-.027.027a2.1 2.1 0 0 1-.187.166c-.2.174-.426.307-.66.4-.073.034-.146.06-.22.087-.26.087-.54.127-.813.127-.18 0-.36-.02-.533-.054a3.72 3.72 0 0 1-.26-.066 2.407 2.407 0 0 1-.307-.114c0-.006 0-.006-.007 0a3.362 3.362 0 0 1-.533-.326l-.007-.007a1.83 1.83 0 0 1-.24-.213 8.206 8.206 0 0 1-.22-.247 3.362 3.362 0 0 1-.326-.533c.006-.007.006-.007 0-.007 0 0 0-.007-.007-.013a3.802 3.802 0 0 1-.107-.294 3.72 3.72 0 0 1-.066-.26A2.837 2.837 0 0 1 1.333 12V3C1.333 2 2 1.333 3 1.333h2C6 1.333 6.667 2 6.667 3Z"/>
    <path fill="none" stroke="#6C707E" stroke-width="1.066672"
          d="M14.667 11v2c0 1-.667 1.667-1.667 1.667H4c.273 0 .553-.04.813-.127.074-.027.147-.053.22-.087.234-.093.46-.226.66-.4a2.1 2.1 0 0 0 .187-.166l.027-.027 4.533-4.527H13c1 0 1.667.667 1.667 1.667ZM3.207 14.547c-.4-.12-.78-.34-1.094-.66a2.557 2.557 0 0 1-.66-1.094 2.68 2.68 0 0 0 1.754 1.754Z"/>
    <path fill="none" stroke="#6C707E" stroke-width="1.066672"
          d="M12.247 7.527 10.44 9.333 5.907 13.86c.466-.48.76-1.14.76-1.86V5.56l1.806-1.807c.707-.706 1.654-.706 2.36 0l1.414 1.414c.706.706.706 1.653 0 2.36ZM4 12.667a.667.667 0 1 0 0-1.334.667.667 0 0 0 0 1.334Z"/></svg>